{
  "version": "0.6.1",
  "modules": [
    {
      "plugin": "Core",
      "version": "0.6.1",
      "model": "AudioInterface",
      "pos": [
        66,
        0
      ],
      "params": [],
      "data": {
        "audio": {
          "driver": 5,
          "deviceName": "Native Instruments: Komplete Audio 6",
          "offset": 0,
          "maxChannels": 8,
          "sampleRate": 44100,
          "blockSize": 256
        }
      }
    },
    {
      "plugin": "VCV-Console",
      "version": "0.6.0",
      "model": "Console8_3",
      "pos": [
        6,
        0
      ],
      "params": [
        {
          "paramId": 0,
          "value": 0.542500019
        },
        {
          "paramId": 8,
          "value": 0.0
        },
        {
          "paramId": 16,
          "value": 0.0
        },
        {
          "paramId": 24,
          "value": 0.0
        },
        {
          "paramId": 32,
          "value": 0.0
        },
        {
          "paramId": 40,
          "value": 0.0
        },
        {
          "paramId": 48,
          "value": 1.0
        },
        {
          "paramId": 1,
          "value": 0.388750017
        },
        {
          "paramId": 9,
          "value": 0.0
        },
        {
          "paramId": 17,
          "value": 0.0
        },
        {
          "paramId": 25,
          "value": 0.0
        },
        {
          "paramId": 33,
          "value": 0.118500002
        },
        {
          "paramId": 41,
          "value": 0.396000057
        },
        {
          "paramId": 49,
          "value": 1.0
        },
        {
          "paramId": 2,
          "value": 0.298750043
        },
        {
          "paramId": 10,
          "value": 0.0
        },
        {
          "paramId": 18,
          "value": 0.0
        },
        {
          "paramId": 26,
          "value": -0.197999954
        },
        {
          "paramId": 34,
          "value": 0.285000026
        },
        {
          "paramId": 42,
          "value": 0.0
        },
        {
          "paramId": 50,
          "value": 1.0
        },
        {
          "paramId": 3,
          "value": 0.26875028
        },
        {
          "paramId": 11,
          "value": 0.0
        },
        {
          "paramId": 19,
          "value": 0.0
        },
        {
          "paramId": 27,
          "value": 0.272999853
        },
        {
          "paramId": 35,
          "value": 0.309000015
        },
        {
          "paramId": 43,
          "value": 0.414000124
        },
        {
          "paramId": 51,
          "value": 1.0
        },
        {
          "paramId": 4,
          "value": 0.205000043
        },
        {
          "paramId": 12,
          "value": 0.0
        },
        {
          "paramId": 20,
          "value": 0.0
        },
        {
          "paramId": 28,
          "value": -0.488999993
        },
        {
          "paramId": 36,
          "value": 0.505500078
        },
        {
          "paramId": 44,
          "value": 0.518999994
        },
        {
          "paramId": 52,
          "value": 1.0
        },
        {
          "paramId": 5,
          "value": 0.19750002
        },
        {
          "paramId": 13,
          "value": 0.0
        },
        {
          "paramId": 21,
          "value": 0.0
        },
        {
          "paramId": 29,
          "value": 0.561000049
        },
        {
          "paramId": 37,
          "value": 0.514500082
        },
        {
          "paramId": 45,
          "value": 0.527999997
        },
        {
          "paramId": 53,
          "value": 1.0
        },
        {
          "paramId": 6,
          "value": 0.212500066
        },
        {
          "paramId": 14,
          "value": 0.0
        },
        {
          "paramId": 22,
          "value": 0.0
        },
        {
          "paramId": 30,
          "value": 0.0
        },
        {
          "paramId": 38,
          "value": 0.42750001
        },
        {
          "paramId": 46,
          "value": 0.415500045
        },
        {
          "paramId": 54,
          "value": 1.0
        },
        {
          "paramId": 7,
          "value": 1.0
        },
        {
          "paramId": 15,
          "value": 0.0
        },
        {
          "paramId": 23,
          "value": 0.0
        },
        {
          "paramId": 31,
          "value": 0.0
        },
        {
          "paramId": 39,
          "value": 0.0
        },
        {
          "paramId": 47,
          "value": 0.0
        },
        {
          "paramId": 55,
          "value": 1.0
        },
        {
          "paramId": 56,
          "value": 1.44700027
        },
        {
          "paramId": 59,
          "value": 1.41100025
        },
        {
          "paramId": 57,
          "value": 1.43500018
        },
        {
          "paramId": 60,
          "value": 1.60000002
        },
        {
          "paramId": 58,
          "value": 1.0
        },
        {
          "paramId": 61,
          "value": 1.0
        },
        {
          "paramId": 62,
          "value": 1.0
        },
        {
          "paramId": 63,
          "value": 0.0
        },
        {
          "paramId": 64,
          "value": 0.0
        }
      ]
    },
    {
      "plugin": "Valley",
      "version": "0.6.4",
      "model": "Plateau",
      "pos": [
        76,
        0
      ],
      "params": [
        {
          "paramId": 0,
          "value": 1.0
        },
        {
          "paramId": 1,
          "value": 0.5
        },
        {
          "paramId": 2,
          "value": 0.0
        },
        {
          "paramId": 3,
          "value": 10.0
        },
        {
          "paramId": 4,
          "value": 10.0
        },
        {
          "paramId": 5,
          "value": 0.5
        },
        {
          "paramId": 6,
          "value": 10.0
        },
        {
          "paramId": 7,
          "value": 0.549950004
        },
        {
          "paramId": 9,
          "value": 10.0
        },
        {
          "paramId": 8,
          "value": 10.0
        },
        {
          "paramId": 10,
          "value": 0.0
        },
        {
          "paramId": 12,
          "value": 0.5
        },
        {
          "paramId": 11,
          "value": 0.5
        },
        {
          "paramId": 17,
          "value": 1.0
        },
        {
          "paramId": 18,
          "value": 1.0
        },
        {
          "paramId": 19,
          "value": 1.0
        },
        {
          "paramId": 20,
          "value": 1.0
        },
        {
          "paramId": 21,
          "value": 1.0
        },
        {
          "paramId": 22,
          "value": 1.0
        },
        {
          "paramId": 23,
          "value": 1.0
        },
        {
          "paramId": 25,
          "value": 1.0
        },
        {
          "paramId": 24,
          "value": 1.0
        },
        {
          "paramId": 26,
          "value": 1.0
        },
        {
          "paramId": 28,
          "value": 1.0
        },
        {
          "paramId": 27,
          "value": 1.0
        },
        {
          "paramId": 13,
          "value": 0.0
        },
        {
          "paramId": 15,
          "value": 0.0
        },
        {
          "paramId": 14,
          "value": 0.0
        },
        {
          "paramId": 29,
          "value": 0.0
        },
        {
          "paramId": 30,
          "value": 0.0
        }
      ],
      "data": {
        "frozen": false,
        "freezeToggle": false,
        "panelStyle": 1,
        "tuned": 0,
        "diffuseInput": 1
      }
    },
    {
      "plugin": "AS",
      "version": "0.6.8",
      "model": "DelayPlusStereoFx",
      "pos": [
        88,
        0
      ],
      "params": [
        {
          "paramId": 0,
          "value": 0.375
        },
        {
          "paramId": 1,
          "value": 0.5
        },
        {
          "paramId": 2,
          "value": 0.5
        },
        {
          "paramId": 3,
          "value": 0.75
        },
        {
          "paramId": 4,
          "value": 0.5
        },
        {
          "paramId": 5,
          "value": 0.5
        },
        {
          "paramId": 6,
          "value": 0.0
        },
        {
          "paramId": 7,
          "value": 0.0
        },
        {
          "paramId": 8,
          "value": 0.5
        },
        {
          "paramId": 9,
          "value": 0.0
        }
      ],
      "data": {
        "as_FxBypass": [
          false
        ]
      }
    },
    {
      "plugin": "VultModulesFree",
      "version": "0.6.6",
      "model": "Debriatus",
      "pos": [
        100,
        0
      ],
      "params": [
        {
          "paramId": 0,
          "value": 0.165000036
        },
        {
          "paramId": 1,
          "value": 0.0
        },
        {
          "paramId": 2,
          "value": 0.0599999726
        },
        {
          "paramId": 3,
          "value": 0.115500003
        },
        {
          "paramId": 4,
          "value": 0.0
        },
        {
          "paramId": 5,
          "value": 0.0
        },
        {
          "paramId": 6,
          "value": 0.0
        },
        {
          "paramId": 7,
          "value": 0.0
        }
      ]
    },
    {
      "plugin": "AS",
      "version": "0.6.8",
      "model": "BPMClock",
      "pos": [
        0,
        0
      ],
      "params": [
        {
          "paramId": 0,
          "value": 120.0
        },
        {
          "paramId": 1,
          "value": 1.0
        },
        {
          "paramId": 2,
          "value": 4.0
        },
        {
          "paramId": 3,
          "value": 1.0
        },
        {
          "paramId": 5,
          "value": 0.0
        },
        {
          "paramId": 4,
          "value": 0.0
        }
      ],
      "data": {
        "run": [
          0
        ]
      }
    },
    {
      "plugin": "Southpole",
      "version": "0.6.0",
      "model": "Sssh",
      "pos": [
        3,
        1
      ],
      "params": []
    },
    {
      "plugin": "SynthKit",
      "version": "0.6.0",
      "model": "Clock Divider",
      "pos": [
        0,
        1
      ],
      "params": []
    },
    {
      "plugin": "AmalgamatedHarmonics",
      "version": "0.6.1",
      "model": "ScaleQuantizer2",
      "pos": [
        17,
        1
      ],
      "params": [
        {
          "paramId": 0,
          "value": 3.0
        },
        {
          "paramId": 1,
          "value": 6.0
        },
        {
          "paramId": 10,
          "value": 0.0
        },
        {
          "paramId": 2,
          "value": 0.0
        },
        {
          "paramId": 3,
          "value": 0.0
        },
        {
          "paramId": 4,
          "value": 0.0
        },
        {
          "paramId": 5,
          "value": 0.0
        },
        {
          "paramId": 6,
          "value": 0.0
        },
        {
          "paramId": 7,
          "value": 0.0
        },
        {
          "paramId": 8,
          "value": 0.0
        },
        {
          "paramId": 9,
          "value": 0.0
        }
      ]
    },
    {
      "plugin": "Befaco",
      "version": "0.6.0",
      "model": "EvenVCO",
      "pos": [
        37,
        1
      ],
      "params": [
        {
          "paramId": 0,
          "value": -2.0
        },
        {
          "paramId": 1,
          "value": 0.0
        },
        {
          "paramId": 2,
          "value": 0.0
        }
      ]
    },
    {
      "plugin": "Befaco",
      "version": "0.6.0",
      "model": "DualAtenuverter",
      "pos": [
        7,
        1
      ],
      "params": [
        {
          "paramId": 0,
          "value": 0.0509999841
        },
        {
          "paramId": 1,
          "value": -0.779999971
        },
        {
          "paramId": 2,
          "value": 0.0719999894
        },
        {
          "paramId": 3,
          "value": -1.3499999
        }
      ]
    },
    {
      "plugin": "Befaco",
      "version": "0.6.0",
      "model": "DualAtenuverter",
      "pos": [
        12,
        1
      ],
      "params": [
        {
          "paramId": 0,
          "value": 0.0899999961
        },
        {
          "paramId": 1,
          "value": -0.330000013
        },
        {
          "paramId": 2,
          "value": 0.0719999969
        },
        {
          "paramId": 3,
          "value": -1.0200001
        }
      ]
    },
    {
      "plugin": "Befaco",
      "version": "0.6.0",
      "model": "EvenVCO",
      "pos": [
        45,
        1
      ],
      "params": [
        {
          "paramId": 0,
          "value": -1.0
        },
        {
          "paramId": 1,
          "value": 0.0
        },
        {
          "paramId": 2,
          "value": 0.0
        }
      ]
    },
    {
      "plugin": "Befaco",
      "version": "0.6.0",
      "model": "EvenVCO",
      "pos": [
        53,
        1
      ],
      "params": [
        {
          "paramId": 0,
          "value": -1.0
        },
        {
          "paramId": 1,
          "value": 0.0
        },
        {
          "paramId": 2,
          "value": 0.0
        }
      ]
    },
    {
      "plugin": "Befaco",
      "version": "0.6.0",
      "model": "EvenVCO",
      "pos": [
        61,
        1
      ],
      "params": [
        {
          "paramId": 0,
          "value": -0.0
        },
        {
          "paramId": 1,
          "value": 0.0
        },
        {
          "paramId": 2,
          "value": 0.0
        }
      ]
    },
    {
      "plugin": "VultModulesFree",
      "version": "0.6.6",
      "model": "Slap",
      "pos": [
        69,
        1
      ],
      "params": [
        {
          "paramId": 0,
          "value": 0.0
        },
        {
          "paramId": 1,
          "value": 0.433999956
        },
        {
          "paramId": 2,
          "value": 0.456499964
        },
        {
          "paramId": 3,
          "value": 0.325999916
        },
        {
          "paramId": 4,
          "value": 0.0
        },
        {
          "paramId": 5,
          "value": 0.0
        },
        {
          "paramId": 6,
          "value": 0.0
        },
        {
          "paramId": 7,
          "value": 0.0
        },
        {
          "paramId": 8,
          "value": 0.0
        }
      ]
    },
    {
      "plugin": "VultModulesFree",
      "version": "0.6.6",
      "model": "Slap",
      "pos": [
        79,
        1
      ],
      "params": [
        {
          "paramId": 0,
          "value": 0.0
        },
        {
          "paramId": 1,
          "value": 0.396499991
        },
        {
          "paramId": 2,
          "value": 0.435499996
        },
        {
          "paramId": 3,
          "value": 0.246499985
        },
        {
          "paramId": 4,
          "value": 0.0
        },
        {
          "paramId": 5,
          "value": 0.0
        },
        {
          "paramId": 6,
          "value": 0.0
        },
        {
          "paramId": 7,
          "value": 0.0
        },
        {
          "paramId": 8,
          "value": 0.0
        }
      ]
    },
    {
      "plugin": "VultModulesFree",
      "version": "0.6.6",
      "model": "Slap",
      "pos": [
        89,
        1
      ],
      "params": [
        {
          "paramId": 0,
          "value": 0.0
        },
        {
          "paramId": 1,
          "value": 0.494000047
        },
        {
          "paramId": 2,
          "value": 0.476000011
        },
        {
          "paramId": 3,
          "value": 0.421999961
        },
        {
          "paramId": 4,
          "value": 0.0
        },
        {
          "paramId": 5,
          "value": 0.0
        },
        {
          "paramId": 6,
          "value": 0.0
        },
        {
          "paramId": 7,
          "value": 0.0
        },
        {
          "paramId": 8,
          "value": 0.0
        }
      ]
    },
    {
      "plugin": "VultModulesFree",
      "version": "0.6.6",
      "model": "Slap",
      "pos": [
        105,
        1
      ],
      "params": [
        {
          "paramId": 0,
          "value": 0.0
        },
        {
          "paramId": 1,
          "value": 0.361999989
        },
        {
          "paramId": 2,
          "value": 0.399500012
        },
        {
          "paramId": 3,
          "value": 0.372500002
        },
        {
          "paramId": 4,
          "value": 0.0
        },
        {
          "paramId": 5,
          "value": 0.0
        },
        {
          "paramId": 6,
          "value": 0.0
        },
        {
          "paramId": 7,
          "value": 0.0
        },
        {
          "paramId": 8,
          "value": 0.0
        }
      ]
    },
    {
      "plugin": "AudibleInstruments",
      "version": "0.6.0",
      "model": "Branches",
      "pos": [
        99,
        1
      ],
      "params": [
        {
          "paramId": 0,
          "value": 0.370999753
        },
        {
          "paramId": 2,
          "value": 0.0
        },
        {
          "paramId": 1,
          "value": 0.648500144
        },
        {
          "paramId": 3,
          "value": 0.0
        }
      ]
    },
    {
      "plugin": "AudibleInstruments",
      "version": "0.6.0",
      "model": "Braids",
      "pos": [
        9,
        2
      ],
      "params": [
        {
          "paramId": 6,
          "value": 0.679501295
        },
        {
          "paramId": 0,
          "value": 0.0
        },
        {
          "paramId": 1,
          "value": 0.0
        },
        {
          "paramId": 2,
          "value": 0.0
        },
        {
          "paramId": 3,
          "value": 0.5
        },
        {
          "paramId": 4,
          "value": 0.0
        },
        {
          "paramId": 5,
          "value": 0.5
        }
      ],
      "data": {
        "settings": [
          31,
          0,
          0,
          0,
          0,
          0,
          0,
          0,
          0,
          0,
          0,
          0,
          0,
          0,
          0,
          0,
          0,
          0,
          0,
          0
        ],
        "lowCpu": false
      }
    },
    {
      "plugin": "AudibleInstruments",
      "version": "0.6.0",
      "model": "Clouds",
      "pos": [
        25,
        2
      ],
      "params": [
        {
          "paramId": 3,
          "value": 0.0503082871
        },
        {
          "paramId": 4,
          "value": 0.704078019
        },
        {
          "paramId": 5,
          "value": 0.0
        },
        {
          "paramId": 6,
          "value": 0.995324016
        },
        {
          "paramId": 7,
          "value": 0.90852648
        },
        {
          "paramId": 8,
          "value": 0.355570674
        },
        {
          "paramId": 9,
          "value": 0.63193506
        },
        {
          "paramId": 10,
          "value": 0.657998919
        },
        {
          "paramId": 11,
          "value": 0.505300164
        },
        {
          "paramId": 12,
          "value": 0.572395802
        },
        {
          "paramId": 0,
          "value": 0.0
        },
        {
          "paramId": 1,
          "value": 0.0
        },
        {
          "paramId": 2,
          "value": 0.0
        }
      ],
      "data": {
        "playback": 0,
        "quality": 0,
        "blendMode": 0
      }
    },
    {
      "plugin": "DrumKit",
      "version": "0.6.0",
      "model": "Closed HiHat",
      "pos": [
        51,
        2
      ],
      "params": [
        {
          "paramId": 0,
          "value": 9.0
        },
        {
          "paramId": 1,
          "value": 8.0
        }
      ]
    },
    {
      "plugin": "NYSTHI",
      "version": "0.6.4.1",
      "model": "MasterRecorder",
      "pos": [
        0,
        2
      ],
      "params": [
        {
          "paramId": 0,
          "value": 0.0
        },
        {
          "paramId": 1,
          "value": 0.0
        },
        {
          "paramId": 2,
          "value": 0.0
        }
      ],
      "data": {
        "nysthi_id": "MR_GXbF6sdS",
        "wavebits": 9
      }
    }
  ],
  "wires": [
    {
      "color": "#c9b70e",
      "outputModuleId": 1,
      "outputId": 14,
      "inputModuleId": 0,
      "inputId": 0
    },
    {
      "color": "#c91847",
      "outputModuleId": 1,
      "outputId": 15,
      "inputModuleId": 0,
      "inputId": 1
    },
    {
      "color": "#0986ad",
      "outputModuleId": 1,
      "outputId": 8,
      "inputModuleId": 2,
      "inputId": 0
    },
    {
      "color": "#c9b70e",
      "outputModuleId": 1,
      "outputId": 11,
      "inputModuleId": 2,
      "inputId": 1
    },
    {
      "color": "#c91847",
      "outputModuleId": 2,
      "outputId": 0,
      "inputModuleId": 1,
      "inputId": 62
    },
    {
      "color": "#0c8e15",
      "outputModuleId": 2,
      "outputId": 1,
      "inputModuleId": 1,
      "inputId": 65
    },
    {
      "color": "#0986ad",
      "outputModuleId": 1,
      "outputId": 9,
      "inputModuleId": 3,
      "inputId": 9
    },
    {
      "color": "#c9b70e",
      "outputModuleId": 1,
      "outputId": 12,
      "inputModuleId": 3,
      "inputId": 10
    },
    {
      "color": "#c91847",
      "outputModuleId": 3,
      "outputId": 2,
      "inputModuleId": 1,
      "inputId": 63
    },
    {
      "color": "#0c8e15",
      "outputModuleId": 3,
      "outputId": 3,
      "inputModuleId": 1,
      "inputId": 66
    },
    {
      "color": "#0986ad",
      "outputModuleId": 1,
      "outputId": 10,
      "inputModuleId": 4,
      "inputId": 0
    },
    {
      "color": "#c9b70e",
      "outputModuleId": 1,
      "outputId": 13,
      "inputModuleId": 4,
      "inputId": 5
    },
    {
      "color": "#c91847",
      "outputModuleId": 4,
      "outputId": 0,
      "inputModuleId": 1,
      "inputId": 64
    },
    {
      "color": "#0c8e15",
      "outputModuleId": 4,
      "outputId": 1,
      "inputModuleId": 1,
      "inputId": 67
    },
    {
      "color": "#0986ad",
      "outputModuleId": 5,
      "outputId": 5,
      "inputModuleId": 5,
      "inputId": 1
    },
    {
      "color": "#0986ad",
      "outputModuleId": 5,
      "outputId": 0,
      "inputModuleId": 7,
      "inputId": 0
    },
    {
      "color": "#c9b70e",
      "outputModuleId": 7,
      "outputId": 0,
      "inputModuleId": 6,
      "inputId": 4
    },
    {
      "color": "#c91847",
      "outputModuleId": 7,
      "outputId": 1,
      "inputModuleId": 6,
      "inputId": 5
    },
    {
      "color": "#0c8e15",
      "outputModuleId": 7,
      "outputId": 3,
      "inputModuleId": 6,
      "inputId": 6
    },
    {
      "color": "#0986ad",
      "outputModuleId": 7,
      "outputId": 7,
      "inputModuleId": 6,
      "inputId": 7
    },
    {
      "color": "#c9b70e",
      "outputModuleId": 6,
      "outputId": 4,
      "inputModuleId": 10,
      "inputId": 0
    },
    {
      "color": "#c91847",
      "outputModuleId": 6,
      "outputId": 5,
      "inputModuleId": 10,
      "inputId": 1
    },
    {
      "color": "#0c8e15",
      "outputModuleId": 6,
      "outputId": 6,
      "inputModuleId": 11,
      "inputId": 0
    },
    {
      "color": "#0986ad",
      "outputModuleId": 6,
      "outputId": 7,
      "inputModuleId": 11,
      "inputId": 1
    },
    {
      "color": "#c9b70e",
      "outputModuleId": 15,
      "outputId": 0,
      "inputModuleId": 1,
      "inputId": 0
    },
    {
      "color": "#c91847",
      "outputModuleId": 8,
      "outputId": 3,
      "inputModuleId": 9,
      "inputId": 1
    },
    {
      "color": "#0986ad",
      "outputModuleId": 11,
      "outputId": 0,
      "inputModuleId": 8,
      "inputId": 2
    },
    {
      "color": "#c9b70e",
      "outputModuleId": 11,
      "outputId": 1,
      "inputModuleId": 8,
      "inputId": 3
    },
    {
      "color": "#c91847",
      "outputModuleId": 10,
      "outputId": 0,
      "inputModuleId": 8,
      "inputId": 0
    },
    {
      "color": "#0c8e15",
      "outputModuleId": 10,
      "outputId": 1,
      "inputModuleId": 8,
      "inputId": 1
    },
    {
      "color": "#0986ad",
      "outputModuleId": 8,
      "outputId": 2,
      "inputModuleId": 12,
      "inputId": 1
    },
    {
      "color": "#c9b70e",
      "outputModuleId": 8,
      "outputId": 1,
      "inputModuleId": 13,
      "inputId": 1
    },
    {
      "color": "#c91847",
      "outputModuleId": 16,
      "outputId": 0,
      "inputModuleId": 1,
      "inputId": 1
    },
    {
      "color": "#c9b70e",
      "outputModuleId": 17,
      "outputId": 0,
      "inputModuleId": 1,
      "inputId": 2
    },
    {
      "color": "#c91847",
      "outputModuleId": 8,
      "outputId": 0,
      "inputModuleId": 14,
      "inputId": 1
    },
    {
      "color": "#0c8e15",
      "outputModuleId": 18,
      "outputId": 0,
      "inputModuleId": 1,
      "inputId": 3
    },
    {
      "color": "#0986ad",
      "outputModuleId": 9,
      "outputId": 0,
      "inputModuleId": 15,
      "inputId": 5
    },
    {
      "color": "#c9b70e",
      "outputModuleId": 12,
      "outputId": 1,
      "inputModuleId": 16,
      "inputId": 5
    },
    {
      "color": "#c91847",
      "outputModuleId": 13,
      "outputId": 3,
      "inputModuleId": 17,
      "inputId": 5
    },
    {
      "color": "#0c8e15",
      "outputModuleId": 14,
      "outputId": 4,
      "inputModuleId": 18,
      "inputId": 5
    },
    {
      "color": "#0986ad",
      "outputModuleId": 5,
      "outputId": 0,
      "inputModuleId": 15,
      "inputId": 0
    },
    {
      "color": "#c91847",
      "outputModuleId": 7,
      "outputId": 1,
      "inputModuleId": 17,
      "inputId": 0
    },
    {
      "color": "#0986ad",
      "outputModuleId": 5,
      "outputId": 1,
      "inputModuleId": 19,
      "inputId": 0
    },
    {
      "color": "#c9b70e",
      "outputModuleId": 19,
      "outputId": 0,
      "inputModuleId": 18,
      "inputId": 0
    },
    {
      "color": "#c91847",
      "outputModuleId": 19,
      "outputId": 1,
      "inputModuleId": 16,
      "inputId": 0
    },
    {
      "color": "#0c8e15",
      "outputModuleId": 5,
      "outputId": 2,
      "inputModuleId": 19,
      "inputId": 1
    },
    {
      "color": "#c9b70e",
      "outputModuleId": 8,
      "outputId": 3,
      "inputModuleId": 20,
      "inputId": 1
    },
    {
      "color": "#c91847",
      "outputModuleId": 21,
      "outputId": 0,
      "inputModuleId": 1,
      "inputId": 4
    },
    {
      "color": "#0c8e15",
      "outputModuleId": 20,
      "outputId": 0,
      "inputModuleId": 21,
      "inputId": 6
    },
    {
      "color": "#0986ad",
      "outputModuleId": 6,
      "outputId": 4,
      "inputModuleId": 21,
      "inputId": 2
    },
    {
      "color": "#c9b70e",
      "outputModuleId": 6,
      "outputId": 5,
      "inputModuleId": 21,
      "inputId": 3
    },
    {
      "color": "#c91847",
      "outputModuleId": 6,
      "outputId": 6,
      "inputModuleId": 21,
      "inputId": 8
    },
    {
      "color": "#0c8e15",
      "outputModuleId": 6,
      "outputId": 7,
      "inputModuleId": 21,
      "inputId": 9
    },
    {
      "color": "#c9b70e",
      "outputModuleId": 21,
      "outputId": 1,
      "inputModuleId": 1,
      "inputId": 5
    },
    {
      "color": "#c9b70e",
      "outputModuleId": 19,
      "outputId": 3,
      "inputModuleId": 22,
      "inputId": 0
    },
    {
      "color": "#c91847",
      "outputModuleId": 22,
      "outputId": 0,
      "inputModuleId": 1,
      "inputId": 6
    },
    {
      "color": "#0c8e15",
      "outputModuleId": 1,
      "outputId": 14,
      "inputModuleId": 23,
      "inputId": 0
    },
    {
      "color": "#0986ad",
      "outputModuleId": 1,
      "outputId": 15,
      "inputModuleId": 23,
      "inputId": 1
    }
  ]
}